<?xml version="1.0" encoding="us-ascii" standalone="no"?><svg xmlns="http://www.w3.org/2000/svg" xmlns:xlink="http://www.w3.org/1999/xlink" contentStyleType="text/css" height="900px" preserveAspectRatio="none" style="width:761px;height:900px;background:#FFFFFF;" version="1.1" viewBox="0 0 761 900" width="761.4px" zoomAndPan="magnify"><defs/><g><!--class Main--><g id="elem_Main"><rect codeLine="3" fill="#F1F1F1" height="39.9727" id="Main" rx="1.5" ry="1.5" style="stroke:#181818;stroke-width:0.3;" width="108.6" x="267.642" y="4.2"/><ellipse cx="310.392" cy="13.8" fill="#ADD1B2" rx="6.6" ry="6.6" style="stroke:#181818;stroke-width:0.6;"/><path d="M312.0514,11.325 Q312.1451,11.1938 312.2576,11.1281 Q312.3701,11.0625 312.5014,11.0625 Q312.7264,11.0625 312.867,11.2219 Q313.0076,11.3719 313.0076,11.7375 L313.0076,12.6094 Q313.0076,12.975 312.867,13.1344 Q312.7264,13.2938 312.5014,13.2938 Q312.2951,13.2938 312.1732,13.1719 Q312.0514,13.0594 311.9857,12.75 Q311.9576,12.5344 311.8451,12.4219 Q311.6482,12.1969 311.2826,12.0656 Q310.917,11.9344 310.542,11.9344 Q310.0826,11.9344 309.6983,12.1313 Q309.3233,12.3281 309.0232,12.7781 Q308.7326,13.2281 308.7326,13.8469 L308.7326,14.5031 Q308.7326,15.2437 309.267,15.7406 Q309.8014,16.2281 310.7576,16.2281 Q311.3201,16.2281 311.7139,16.0781 Q311.9483,15.9844 312.2014,15.7219 Q312.3607,15.5625 312.4451,15.5156 Q312.5389,15.4688 312.6607,15.4688 Q312.8576,15.4688 313.0076,15.6281 Q313.167,15.7781 313.167,15.9844 Q313.167,16.1906 312.9607,16.4344 Q312.6607,16.7813 312.1826,16.9781 Q311.5357,17.25 310.7576,17.25 Q309.8482,17.25 309.1264,16.875 Q308.5357,16.575 308.1232,15.9375 Q307.7107,15.2906 307.7107,14.5219 L307.7107,13.8281 Q307.7107,13.0313 308.0764,12.3469 Q308.4514,11.6531 309.1076,11.2875 Q309.7639,10.9125 310.5045,10.9125 Q310.9451,10.9125 311.3295,11.0156 Q311.7232,11.1094 312.0514,11.325 Z " fill="#000000"/><text fill="#000000" font-family="sans-serif" font-size="8.4" lengthAdjust="spacing" textLength="18" x="322.692" y="17.2781">Main</text><line style="stroke:#181818;stroke-width:0.3;" x1="268.242" x2="375.642" y1="23.4" y2="23.4"/><line style="stroke:#181818;stroke-width:0.3;" x1="268.242" x2="375.642" y1="28.2" y2="28.2"/><ellipse cx="274.242" cy="37.0863" fill="#84BE84" rx="1.8" ry="1.8" style="stroke:#038048;stroke-width:0.6;"/><text fill="#000000" font-family="sans-serif" font-size="8.4" lengthAdjust="spacing" textLength="93" x="279.642" y="39.6645">main(args: String[]): void</text></g><!--class MovingParticle--><g id="elem_MovingParticle"><rect codeLine="7" fill="#F1F1F1" height="140.5266" id="MovingParticle" rx="1.5" ry="1.5" style="stroke:#181818;stroke-width:0.3;" width="392.4" x="157.542" y="755.4"/><ellipse cx="323.592" cy="765" fill="#ADD1B2" rx="6.6" ry="6.6" style="stroke:#181818;stroke-width:0.6;"/><path d="M325.2514,762.525 Q325.3451,762.3938 325.4576,762.3281 Q325.5701,762.2625 325.7014,762.2625 Q325.9264,762.2625 326.067,762.4219 Q326.2076,762.5719 326.2076,762.9375 L326.2076,763.8094 Q326.2076,764.175 326.067,764.3344 Q325.9264,764.4938 325.7014,764.4938 Q325.4951,764.4938 325.3732,764.3719 Q325.2514,764.2594 325.1857,763.95 Q325.1576,763.7344 325.0451,763.6219 Q324.8482,763.3969 324.4826,763.2656 Q324.117,763.1344 323.742,763.1344 Q323.2826,763.1344 322.8982,763.3313 Q322.5232,763.5281 322.2232,763.9781 Q321.9326,764.4281 321.9326,765.0469 L321.9326,765.7031 Q321.9326,766.4438 322.467,766.9406 Q323.0014,767.4281 323.9576,767.4281 Q324.5201,767.4281 324.9139,767.2781 Q325.1482,767.1844 325.4014,766.9219 Q325.5607,766.7625 325.6451,766.7156 Q325.7389,766.6687 325.8607,766.6687 Q326.0576,766.6687 326.2076,766.8281 Q326.367,766.9781 326.367,767.1844 Q326.367,767.3906 326.1607,767.6344 Q325.8607,767.9812 325.3826,768.1781 Q324.7357,768.45 323.9576,768.45 Q323.0482,768.45 322.3264,768.075 Q321.7357,767.775 321.3233,767.1375 Q320.9107,766.4906 320.9107,765.7219 L320.9107,765.0281 Q320.9107,764.2312 321.2764,763.5469 Q321.6514,762.8531 322.3076,762.4875 Q322.9639,762.1125 323.7045,762.1125 Q324.1451,762.1125 324.5295,762.2156 Q324.9232,762.3094 325.2514,762.525 Z " fill="#000000"/><text fill="#000000" font-family="sans-serif" font-size="8.4" lengthAdjust="spacing" textLength="55.2" x="335.892" y="768.4781">MovingParticle</text><line style="stroke:#181818;stroke-width:0.3;" x1="158.142" x2="549.342" y1="774.6" y2="774.6"/><rect fill="none" height="3.6" style="stroke:#C82930;stroke-width:0.6;" width="3.6" x="162.342" y="781.6863"/><text fill="#000000" font-family="sans-serif" font-size="8.4" lengthAdjust="spacing" textLength="58.8" x="169.542" y="786.0645">velocity: double</text><rect fill="none" height="3.6" style="stroke:#C82930;stroke-width:0.6;" width="3.6" x="162.342" y="792.859"/><text fill="#000000" font-family="sans-serif" font-size="8.4" lengthAdjust="spacing" textLength="51.6" x="169.542" y="797.2371">angle: double</text><ellipse cx="164.142" cy="805.8316" fill="none" rx="1.8" ry="1.8" style="stroke:#038048;stroke-width:0.6;"/><text fill="#000000" font-family="sans-serif" font-size="8.4" lengthAdjust="spacing" textLength="52.2" x="169.542" y="808.4098">Builder: Class</text><line style="stroke:#181818;stroke-width:0.3;" x1="158.142" x2="549.342" y1="812.918" y2="812.918"/><polygon fill="#FFFF44" points="164.142,818.8043,166.542,821.2043,164.142,823.6043,161.742,821.2043" style="stroke:#B38D22;stroke-width:0.6;"/><text fill="#000000" font-family="sans-serif" font-size="8.4" lengthAdjust="spacing" textLength="376.8" x="169.542" y="824.3824">MovingParticle(identifier: string, radius: double, x: double, y: double, velocity: double, angle: double)</text><ellipse cx="164.142" cy="832.977" fill="#84BE84" rx="1.8" ry="1.8" style="stroke:#038048;stroke-width:0.6;"/><text fill="#000000" font-family="sans-serif" font-size="8.4" lengthAdjust="spacing" textLength="78" x="169.542" y="835.5551">getVelocity(): double</text><ellipse cx="164.142" cy="844.1496" fill="#84BE84" rx="1.8" ry="1.8" style="stroke:#038048;stroke-width:0.6;"/><text fill="#000000" font-family="sans-serif" font-size="8.4" lengthAdjust="spacing" textLength="70.2" x="169.542" y="846.7277">getAngle(): double</text><ellipse cx="164.142" cy="855.3223" fill="#84BE84" rx="1.8" ry="1.8" style="stroke:#038048;stroke-width:0.6;"/><text fill="#000000" font-family="sans-serif" font-size="8.4" lengthAdjust="spacing" textLength="126" x="169.542" y="857.9004">setVelocity(velocity: double): void</text><ellipse cx="164.142" cy="866.4949" fill="#84BE84" rx="1.8" ry="1.8" style="stroke:#038048;stroke-width:0.6;"/><text fill="#000000" font-family="sans-serif" font-size="8.4" lengthAdjust="spacing" textLength="111" x="169.542" y="869.073">setAngle(angle: double): void</text><ellipse cx="164.142" cy="877.6676" fill="#84BE84" rx="1.8" ry="1.8" style="stroke:#038048;stroke-width:0.6;"/><text fill="#000000" font-family="sans-serif" font-size="8.4" lengthAdjust="spacing" textLength="107.4" x="169.542" y="880.2457">equals(obj: Object): boolean</text><ellipse cx="164.142" cy="888.8402" fill="#84BE84" rx="1.8" ry="1.8" style="stroke:#038048;stroke-width:0.6;"/><text fill="#000000" font-family="sans-serif" font-size="8.4" lengthAdjust="spacing" textLength="58.8" x="169.542" y="891.4184">hashCode(): int</text></g><!--class Particle--><g id="elem_Particle"><rect codeLine="20" fill="#F1F1F1" height="229.9078" id="Particle" rx="1.5" ry="1.5" style="stroke:#181818;stroke-width:0.3;" width="411.6" x="147.942" y="489.6"/><ellipse cx="337.092" cy="499.2" fill="#ADD1B2" rx="6.6" ry="6.6" style="stroke:#181818;stroke-width:0.6;"/><path d="M338.7514,496.725 Q338.8451,496.5938 338.9576,496.5281 Q339.0701,496.4625 339.2014,496.4625 Q339.4264,496.4625 339.567,496.6219 Q339.7076,496.7719 339.7076,497.1375 L339.7076,498.0094 Q339.7076,498.375 339.567,498.5344 Q339.4264,498.6937 339.2014,498.6937 Q338.9951,498.6937 338.8733,498.5719 Q338.7514,498.4594 338.6858,498.15 Q338.6576,497.9344 338.5451,497.8219 Q338.3483,497.5969 337.9826,497.4656 Q337.617,497.3344 337.242,497.3344 Q336.7826,497.3344 336.3983,497.5313 Q336.0233,497.7281 335.7233,498.1781 Q335.4326,498.6281 335.4326,499.2469 L335.4326,499.9031 Q335.4326,500.6437 335.967,501.1406 Q336.5014,501.6281 337.4576,501.6281 Q338.0201,501.6281 338.4139,501.4781 Q338.6483,501.3844 338.9014,501.1219 Q339.0608,500.9625 339.1451,500.9156 Q339.2389,500.8688 339.3608,500.8688 Q339.5576,500.8688 339.7076,501.0281 Q339.867,501.1781 339.867,501.3844 Q339.867,501.5906 339.6608,501.8344 Q339.3608,502.1813 338.8826,502.3781 Q338.2358,502.65 337.4576,502.65 Q336.5483,502.65 335.8264,502.275 Q335.2358,501.975 334.8233,501.3375 Q334.4108,500.6906 334.4108,499.9219 L334.4108,499.2281 Q334.4108,498.4313 334.7764,497.7469 Q335.1514,497.0531 335.8076,496.6875 Q336.4639,496.3125 337.2045,496.3125 Q337.6451,496.3125 338.0295,496.4156 Q338.4233,496.5094 338.7514,496.725 Z " fill="#000000"/><text fill="#000000" font-family="sans-serif" font-size="8.4" lengthAdjust="spacing" textLength="28.2" x="349.392" y="502.6781">Particle</text><line style="stroke:#181818;stroke-width:0.3;" x1="148.542" x2="558.942" y1="508.8" y2="508.8"/><rect fill="none" height="3.6" style="stroke:#C82930;stroke-width:0.6;" width="3.6" x="152.742" y="515.8863"/><text fill="#000000" font-family="sans-serif" font-size="8.4" lengthAdjust="spacing" textLength="58.2" x="159.942" y="520.2645">identifier: string</text><rect fill="none" height="3.6" style="stroke:#C82930;stroke-width:0.6;" width="3.6" x="152.742" y="527.059"/><text fill="#000000" font-family="sans-serif" font-size="8.4" lengthAdjust="spacing" textLength="54" x="159.942" y="531.4371">radius: double</text><rect fill="none" height="3.6" style="stroke:#C82930;stroke-width:0.6;" width="3.6" x="152.742" y="538.2316"/><text fill="#000000" font-family="sans-serif" font-size="8.4" lengthAdjust="spacing" textLength="34.2" x="159.942" y="542.6098">x: double</text><rect fill="none" height="3.6" style="stroke:#C82930;stroke-width:0.6;" width="3.6" x="152.742" y="549.4043"/><text fill="#000000" font-family="sans-serif" font-size="8.4" lengthAdjust="spacing" textLength="34.8" x="159.942" y="553.7824">y: double</text><ellipse cx="154.542" cy="562.377" fill="none" rx="1.8" ry="1.8" style="stroke:#038048;stroke-width:0.6;"/><text fill="#000000" font-family="sans-serif" font-size="8.4" lengthAdjust="spacing" textLength="52.2" x="159.942" y="564.9551">Builder: Class</text><line style="stroke:#181818;stroke-width:0.3;" x1="148.542" x2="558.942" y1="569.4633" y2="569.4633"/><polygon fill="#FFFF44" points="154.542,575.3496,156.942,577.7496,154.542,580.1496,152.142,577.7496" style="stroke:#B38D22;stroke-width:0.6;"/><text fill="#000000" font-family="sans-serif" font-size="8.4" lengthAdjust="spacing" textLength="229.8" x="159.942" y="580.9277">Particle(identifier: string, radius: double, x: double, y: double)</text><ellipse cx="154.542" cy="589.5223" fill="#84BE84" rx="1.8" ry="1.8" style="stroke:#038048;stroke-width:0.6;"/><text fill="#000000" font-family="sans-serif" font-size="8.4" lengthAdjust="spacing" textLength="76.2" x="159.942" y="592.1004">getIdentifier(): string</text><ellipse cx="154.542" cy="600.6949" fill="#84BE84" rx="1.8" ry="1.8" style="stroke:#038048;stroke-width:0.6;"/><text fill="#000000" font-family="sans-serif" font-size="8.4" lengthAdjust="spacing" textLength="75" x="159.942" y="603.273">getRadius(): double</text><ellipse cx="154.542" cy="611.8676" fill="#84BE84" rx="1.8" ry="1.8" style="stroke:#038048;stroke-width:0.6;"/><text fill="#000000" font-family="sans-serif" font-size="8.4" lengthAdjust="spacing" textLength="53.4" x="159.942" y="614.4457">getX(): double</text><ellipse cx="154.542" cy="623.0402" fill="#84BE84" rx="1.8" ry="1.8" style="stroke:#038048;stroke-width:0.6;"/><text fill="#000000" font-family="sans-serif" font-size="8.4" lengthAdjust="spacing" textLength="54" x="159.942" y="625.6184">getY(): double</text><ellipse cx="154.542" cy="634.2129" fill="#84BE84" rx="1.8" ry="1.8" style="stroke:#038048;stroke-width:0.6;"/><text fill="#000000" font-family="sans-serif" font-size="8.4" lengthAdjust="spacing" textLength="76.8" x="159.942" y="636.791">setX(x: double): void</text><ellipse cx="154.542" cy="645.3855" fill="#84BE84" rx="1.8" ry="1.8" style="stroke:#038048;stroke-width:0.6;"/><text fill="#000000" font-family="sans-serif" font-size="8.4" lengthAdjust="spacing" textLength="78" x="159.942" y="647.9637">setY(y: double): void</text><ellipse cx="154.542" cy="656.5582" fill="#84BE84" rx="1.8" ry="1.8" style="stroke:#038048;stroke-width:0.6;"/><text fill="#000000" font-family="sans-serif" font-size="8.4" lengthAdjust="spacing" textLength="139.2" x="159.942" y="659.1363">distanceTo(particle: Particle): double</text><ellipse cx="154.542" cy="667.7309" fill="#84BE84" rx="1.8" ry="1.8" style="stroke:#038048;stroke-width:0.6;"/><text fill="#000000" font-family="sans-serif" font-size="8.4" lengthAdjust="spacing" textLength="235.2" x="159.942" y="670.309">distanceTo(particle: Particle, boolean borderToBoder): double</text><ellipse cx="154.542" cy="678.9035" fill="#84BE84" rx="1.8" ry="1.8" style="stroke:#038048;stroke-width:0.6;"/><text fill="#000000" font-family="sans-serif" font-size="8.4" lengthAdjust="spacing" textLength="396" x="159.942" y="681.4816">distanceWithPeriodicConditionL(particle: Particle, planeLength: double, borderToBoder:boolean): double</text><ellipse cx="154.542" cy="690.0762" fill="#84BE84" rx="1.8" ry="1.8" style="stroke:#038048;stroke-width:0.6;"/><text fill="#000000" font-family="sans-serif" font-size="8.4" lengthAdjust="spacing" textLength="61.2" x="159.942" y="692.6543">toString(): string</text><ellipse cx="154.542" cy="701.2488" fill="#84BE84" rx="1.8" ry="1.8" style="stroke:#038048;stroke-width:0.6;"/><text fill="#000000" font-family="sans-serif" font-size="8.4" lengthAdjust="spacing" textLength="107.4" x="159.942" y="703.827">equals(obj: Object): boolean</text><ellipse cx="154.542" cy="712.4215" fill="#84BE84" rx="1.8" ry="1.8" style="stroke:#038048;stroke-width:0.6;"/><text fill="#000000" font-family="sans-serif" font-size="8.4" lengthAdjust="spacing" textLength="58.8" x="159.942" y="714.9996">hashCode(): int</text></g><!--class CellIndexMethod--><g id="elem_CellIndexMethod"><rect codeLine="41" fill="#F1F1F1" height="185.2172" id="CellIndexMethod" rx="1.5" ry="1.5" style="stroke:#181818;stroke-width:0.3;" width="523.8" x="60.042" y="268.2"/><ellipse cx="257.892" cy="277.8" fill="#ADD1B2" rx="6.6" ry="6.6" style="stroke:#181818;stroke-width:0.6;"/><path d="M259.5514,275.325 Q259.6451,275.1937 259.7576,275.1281 Q259.8701,275.0625 260.0014,275.0625 Q260.2264,275.0625 260.367,275.2219 Q260.5076,275.3719 260.5076,275.7375 L260.5076,276.6094 Q260.5076,276.975 260.367,277.1344 Q260.2264,277.2938 260.0014,277.2938 Q259.7951,277.2938 259.6733,277.1719 Q259.5514,277.0594 259.4858,276.75 Q259.4576,276.5344 259.3451,276.4219 Q259.1482,276.1969 258.7826,276.0656 Q258.417,275.9344 258.042,275.9344 Q257.5826,275.9344 257.1983,276.1312 Q256.8233,276.3281 256.5232,276.7781 Q256.2326,277.2281 256.2326,277.8469 L256.2326,278.5031 Q256.2326,279.2438 256.767,279.7406 Q257.3014,280.2281 258.2576,280.2281 Q258.8201,280.2281 259.2139,280.0781 Q259.4483,279.9844 259.7014,279.7219 Q259.8608,279.5625 259.9451,279.5156 Q260.0389,279.4688 260.1608,279.4688 Q260.3576,279.4688 260.5076,279.6281 Q260.667,279.7781 260.667,279.9844 Q260.667,280.1906 260.4607,280.4344 Q260.1608,280.7813 259.6826,280.9781 Q259.0358,281.25 258.2576,281.25 Q257.3483,281.25 256.6264,280.875 Q256.0358,280.575 255.6232,279.9375 Q255.2108,279.2906 255.2108,278.5219 L255.2108,277.8281 Q255.2108,277.0313 255.5764,276.3469 Q255.9514,275.6531 256.6076,275.2875 Q257.2639,274.9125 258.0045,274.9125 Q258.4451,274.9125 258.8295,275.0156 Q259.2233,275.1094 259.5514,275.325 Z " fill="#000000"/><text fill="#000000" font-family="sans-serif" font-size="8.4" lengthAdjust="spacing" textLength="62.4" x="270.192" y="281.2781">CellIndexMethod</text><rect fill="#FFFFFF" height="10.7766" style="stroke:#181818;stroke-width:0.6;stroke-dasharray:2.0,2.0;" width="59.4" x="526.242" y="266.4"/><text fill="#000000" font-family="sans-serif" font-size="7.2" font-style="italic" lengthAdjust="spacing" textLength="58.2" x="526.842" y="274.7695">T extends Particle</text><line style="stroke:#181818;stroke-width:0.3;" x1="60.642" x2="583.242" y1="287.4" y2="287.4"/><rect fill="none" height="3.6" style="stroke:#C82930;stroke-width:0.6;" width="3.6" x="64.842" y="294.4863"/><text fill="#000000" font-family="sans-serif" font-size="8.4" lengthAdjust="spacing" textLength="96.6" x="72.042" y="298.8645">interactionRadius: double</text><rect fill="none" height="3.6" style="stroke:#C82930;stroke-width:0.6;" width="3.6" x="64.842" y="305.659"/><text fill="#000000" font-family="sans-serif" font-size="8.4" lengthAdjust="spacing" textLength="73.2" x="72.042" y="310.0371">matrixCellCount: int</text><rect fill="none" height="3.6" style="stroke:#C82930;stroke-width:0.6;" width="3.6" x="64.842" y="316.8316"/><text fill="#000000" font-family="sans-serif" font-size="8.4" lengthAdjust="spacing" textLength="105.6" x="72.042" y="321.2098">periodicConditions: boolean</text><rect fill="none" height="3.6" style="stroke:#C82930;stroke-width:0.6;" width="3.6" x="64.842" y="328.0043"/><text fill="#000000" font-family="sans-serif" font-size="8.4" lengthAdjust="spacing" textLength="62.4" x="72.042" y="332.3824">plane: Plane&lt;T&gt;</text><ellipse cx="66.642" cy="340.977" fill="none" rx="1.8" ry="1.8" style="stroke:#038048;stroke-width:0.6;"/><text fill="#000000" font-family="sans-serif" font-size="8.4" lengthAdjust="spacing" textLength="52.2" x="72.042" y="343.5551">Builder: Class</text><line style="stroke:#181818;stroke-width:0.3;" x1="60.642" x2="583.242" y1="348.0633" y2="348.0633"/><rect fill="#F24D5C" height="3.6" style="stroke:#C82930;stroke-width:0.6;" width="3.6" x="64.842" y="355.1496"/><text fill="#000000" font-family="sans-serif" font-size="8.4" lengthAdjust="spacing" textLength="420.6" x="72.042" y="359.5277">CellIndexMethod(interactionRadius: double, matrixCellCount: int, periodicConditions: boolean, plane: Plane&lt;T&gt;)</text><ellipse cx="66.642" cy="368.1223" fill="#84BE84" rx="1.8" ry="1.8" style="stroke:#038048;stroke-width:0.6;"/><text fill="#000000" font-family="sans-serif" font-size="8.4" lengthAdjust="spacing" textLength="114.6" x="72.042" y="370.7004">getInteractionRadius(): double</text><ellipse cx="66.642" cy="379.2949" fill="#84BE84" rx="1.8" ry="1.8" style="stroke:#038048;stroke-width:0.6;"/><text fill="#000000" font-family="sans-serif" font-size="8.4" lengthAdjust="spacing" textLength="91.2" x="72.042" y="381.873">getMatrixCellCount(): int</text><ellipse cx="66.642" cy="390.4676" fill="#84BE84" rx="1.8" ry="1.8" style="stroke:#038048;stroke-width:0.6;"/><text fill="#000000" font-family="sans-serif" font-size="8.4" lengthAdjust="spacing" textLength="118.2" x="72.042" y="393.0457">isPeriodicConditions(): boolean</text><ellipse cx="66.642" cy="401.6402" fill="#84BE84" rx="1.8" ry="1.8" style="stroke:#038048;stroke-width:0.6;"/><text fill="#000000" font-family="sans-serif" font-size="8.4" lengthAdjust="spacing" textLength="81" x="72.042" y="404.2184">getPlane(): Plane&lt;T&gt;</text><ellipse cx="66.642" cy="412.8129" fill="#84BE84" rx="1.8" ry="1.8" style="stroke:#038048;stroke-width:0.6;"/><text fill="#000000" font-family="sans-serif" font-size="8.4" lengthAdjust="spacing" textLength="61.2" x="72.042" y="415.391">toString(): string</text><rect fill="#F24D5C" height="3.6" style="stroke:#C82930;stroke-width:0.6;" width="3.6" x="64.842" y="422.1855"/><text fill="#000000" font-family="sans-serif" font-size="8.4" lengthAdjust="spacing" textLength="508.2" x="72.042" y="426.5637">isInsideCell(particle: Particle, cellTopLeftX: double, cellTopLeftY: double, cellBottomRightX: double, cellBottomRightY: double): boolean</text><ellipse cx="66.642" cy="435.1582" fill="#84BE84" rx="1.8" ry="1.8" style="stroke:#038048;stroke-width:0.6;"/><text fill="#000000" font-family="sans-serif" font-size="8.4" lengthAdjust="spacing" textLength="103.8" x="72.042" y="437.7363">execute(): Map&lt;T, Set&lt;T&gt;&gt;</text><ellipse cx="66.642" cy="446.3309" fill="#84BE84" rx="1.8" ry="1.8" style="stroke:#038048;stroke-width:0.6;"/><text fill="#000000" font-family="sans-serif" font-size="8.4" lengthAdjust="spacing" textLength="116.4" x="72.042" y="448.909">bruteForce(): Map&lt;T, Set&lt;T&gt;&gt;</text></g><!--class OffLaticeAutomata--><g id="elem_OffLaticeAutomata"><rect codeLine="58" fill="#F1F1F1" height="151.6992" id="OffLaticeAutomata" rx="1.5" ry="1.5" style="stroke:#181818;stroke-width:0.3;" width="340.2" x="151.842" y="80.4"/><ellipse cx="284.292" cy="90" fill="#ADD1B2" rx="6.6" ry="6.6" style="stroke:#181818;stroke-width:0.6;"/><path d="M285.9514,87.525 Q286.0451,87.3938 286.1576,87.3281 Q286.2701,87.2625 286.4014,87.2625 Q286.6264,87.2625 286.767,87.4219 Q286.9076,87.5719 286.9076,87.9375 L286.9076,88.8094 Q286.9076,89.175 286.767,89.3344 Q286.6264,89.4937 286.4014,89.4937 Q286.1951,89.4937 286.0733,89.3719 Q285.9514,89.2594 285.8858,88.95 Q285.8576,88.7344 285.7451,88.6219 Q285.5483,88.3969 285.1826,88.2656 Q284.817,88.1344 284.442,88.1344 Q283.9826,88.1344 283.5983,88.3313 Q283.2233,88.5281 282.9233,88.9781 Q282.6326,89.4281 282.6326,90.0469 L282.6326,90.7031 Q282.6326,91.4438 283.167,91.9406 Q283.7014,92.4281 284.6576,92.4281 Q285.2201,92.4281 285.6139,92.2781 Q285.8483,92.1844 286.1014,91.9219 Q286.2608,91.7625 286.3451,91.7156 Q286.4389,91.6688 286.5608,91.6688 Q286.7576,91.6688 286.9076,91.8281 Q287.067,91.9781 287.067,92.1844 Q287.067,92.3906 286.8608,92.6344 Q286.5608,92.9813 286.0826,93.1781 Q285.4358,93.45 284.6576,93.45 Q283.7483,93.45 283.0264,93.075 Q282.4358,92.775 282.0233,92.1375 Q281.6108,91.4906 281.6108,90.7219 L281.6108,90.0281 Q281.6108,89.2313 281.9764,88.5469 Q282.3514,87.8531 283.0076,87.4875 Q283.6639,87.1125 284.4045,87.1125 Q284.8451,87.1125 285.2295,87.2156 Q285.6233,87.3094 285.9514,87.525 Z " fill="#000000"/><text fill="#000000" font-family="sans-serif" font-size="8.4" lengthAdjust="spacing" textLength="70.2" x="296.592" y="93.4781">OffLaticeAutomata</text><line style="stroke:#181818;stroke-width:0.3;" x1="152.442" x2="491.442" y1="99.6" y2="99.6"/><rect fill="none" height="3.6" style="stroke:#C82930;stroke-width:0.6;" width="3.6" x="156.642" y="106.6863"/><text fill="#000000" font-family="sans-serif" font-size="8.4" lengthAdjust="spacing" textLength="144.6" x="163.842" y="111.0645">cim: CellIndexMethod&lt;MovingParticle&gt;</text><rect fill="none" height="3.6" style="stroke:#C82930;stroke-width:0.6;" width="3.6" x="156.642" y="117.859"/><text fill="#000000" font-family="sans-serif" font-size="8.4" lengthAdjust="spacing" textLength="51" x="163.842" y="122.2371">noise: double</text><ellipse cx="158.442" cy="130.8316" fill="none" rx="1.8" ry="1.8" style="stroke:#038048;stroke-width:0.6;"/><text fill="#000000" font-family="sans-serif" font-size="8.4" lengthAdjust="spacing" textLength="52.2" x="163.842" y="133.4098">Builder: Class</text><line style="stroke:#181818;stroke-width:0.3;" x1="152.442" x2="491.442" y1="137.918" y2="137.918"/><polygon fill="#FFFF44" points="158.442,143.8043,160.842,146.2043,158.442,148.6043,156.042,146.2043" style="stroke:#B38D22;stroke-width:0.6;"/><text fill="#000000" font-family="sans-serif" font-size="8.4" lengthAdjust="spacing" textLength="324.6" x="163.842" y="149.3824">OffLaticeAutomata(cellIndexMethod: CellIndexMethod&lt;MovingParticle&gt;, noise: double)</text><rect fill="#F24D5C" height="3.6" style="stroke:#C82930;stroke-width:0.6;" width="3.6" x="156.642" y="156.177"/><text fill="#000000" font-family="sans-serif" font-size="8.4" lengthAdjust="spacing" textLength="274.8" x="163.842" y="160.5551">calculateNewXPosition(x: double, velocity: double, angle: double): double</text><rect fill="#F24D5C" height="3.6" style="stroke:#C82930;stroke-width:0.6;" width="3.6" x="156.642" y="167.3496"/><text fill="#000000" font-family="sans-serif" font-size="8.4" lengthAdjust="spacing" textLength="276" x="163.842" y="171.7277">calculateNewYPosition(y: double, velocity: double, angle: double): double</text><rect fill="#F24D5C" height="3.6" style="stroke:#C82930;stroke-width:0.6;" width="3.6" x="156.642" y="178.5223"/><text fill="#000000" font-family="sans-serif" font-size="8.4" lengthAdjust="spacing" textLength="286.8" x="163.842" y="182.9004">calculateNewAngle(angle: double, neighboursAngles: List&lt;Double&gt;): double</text><ellipse cx="158.442" cy="191.4949" fill="#84BE84" rx="1.8" ry="1.8" style="stroke:#038048;stroke-width:0.6;"/><text fill="#000000" font-family="sans-serif" font-size="8.4" lengthAdjust="spacing" textLength="72" x="163.842" y="194.073">execute(t: int): void</text><ellipse cx="158.442" cy="202.6676" fill="#84BE84" rx="1.8" ry="1.8" style="stroke:#038048;stroke-width:0.6;"/><text fill="#000000" font-family="sans-serif" font-size="8.4" lengthAdjust="spacing" textLength="134.4" x="163.842" y="205.2457">execute(t: int, filename: string): void</text><ellipse cx="158.442" cy="213.8402" fill="#84BE84" rx="1.8" ry="1.8" style="stroke:#038048;stroke-width:0.6;"/><text fill="#000000" font-family="sans-serif" font-size="8.4" lengthAdjust="spacing" textLength="164.4" x="163.842" y="216.4184">getCim(): CellIndexMethod&lt;MovingParticle&gt;</text><ellipse cx="158.442" cy="225.0129" fill="#84BE84" rx="1.8" ry="1.8" style="stroke:#038048;stroke-width:0.6;"/><text fill="#000000" font-family="sans-serif" font-size="8.4" lengthAdjust="spacing" textLength="72.6" x="163.842" y="227.591">getNouse(): double</text></g><!--class Plane--><g id="elem_Plane"><rect codeLine="72" fill="#F1F1F1" height="107.0086" id="Plane" rx="1.5" ry="1.5" style="stroke:#181818;stroke-width:0.3;" width="150" x="605.142" y="307.5"/><ellipse cx="636.492" cy="317.1" fill="#ADD1B2" rx="6.6" ry="6.6" style="stroke:#181818;stroke-width:0.6;"/><path d="M638.1514,314.625 Q638.2451,314.4938 638.3576,314.4281 Q638.4701,314.3625 638.6014,314.3625 Q638.8264,314.3625 638.967,314.5219 Q639.1076,314.6719 639.1076,315.0375 L639.1076,315.9094 Q639.1076,316.275 638.967,316.4344 Q638.8264,316.5938 638.6014,316.5938 Q638.3951,316.5938 638.2733,316.4719 Q638.1514,316.3594 638.0858,316.05 Q638.0576,315.8344 637.9451,315.7219 Q637.7483,315.4969 637.3826,315.3656 Q637.017,315.2344 636.642,315.2344 Q636.1826,315.2344 635.7982,315.4313 Q635.4232,315.6281 635.1233,316.0781 Q634.8326,316.5281 634.8326,317.1469 L634.8326,317.8031 Q634.8326,318.5438 635.367,319.0406 Q635.9014,319.5281 636.8576,319.5281 Q637.4201,319.5281 637.8139,319.3781 Q638.0482,319.2844 638.3014,319.0219 Q638.4608,318.8625 638.5451,318.8156 Q638.6389,318.7688 638.7607,318.7688 Q638.9576,318.7688 639.1076,318.9281 Q639.267,319.0781 639.267,319.2844 Q639.267,319.4906 639.0608,319.7344 Q638.7607,320.0813 638.2826,320.2781 Q637.6357,320.55 636.8576,320.55 Q635.9482,320.55 635.2264,320.175 Q634.6357,319.875 634.2232,319.2375 Q633.8108,318.5906 633.8108,317.8219 L633.8108,317.1281 Q633.8108,316.3313 634.1764,315.6469 Q634.5514,314.9531 635.2076,314.5875 Q635.8639,314.2125 636.6045,314.2125 Q637.0451,314.2125 637.4295,314.3156 Q637.8232,314.4094 638.1514,314.625 Z " fill="#000000"/><text fill="#000000" font-family="sans-serif" font-size="8.4" lengthAdjust="spacing" textLength="21.6" x="648.792" y="320.5781">Plane</text><rect fill="#FFFFFF" height="10.7766" style="stroke:#181818;stroke-width:0.6;stroke-dasharray:2.0,2.0;" width="59.4" x="697.542" y="305.7"/><text fill="#000000" font-family="sans-serif" font-size="7.2" font-style="italic" lengthAdjust="spacing" textLength="58.2" x="698.142" y="314.0695">T extends Particle</text><line style="stroke:#181818;stroke-width:0.3;" x1="605.742" x2="754.542" y1="326.7" y2="326.7"/><rect fill="none" height="3.6" style="stroke:#C82930;stroke-width:0.6;" width="3.6" x="609.942" y="333.7863"/><text fill="#000000" font-family="sans-serif" font-size="8.4" lengthAdjust="spacing" textLength="37.2" x="617.142" y="338.1645">length: int</text><rect fill="none" height="3.6" style="stroke:#C82930;stroke-width:0.6;" width="3.6" x="609.942" y="344.959"/><text fill="#000000" font-family="sans-serif" font-size="8.4" lengthAdjust="spacing" textLength="64.8" x="617.142" y="349.3371">particles: List&lt;T&gt;</text><ellipse cx="611.742" cy="357.9316" fill="none" rx="1.8" ry="1.8" style="stroke:#038048;stroke-width:0.6;"/><text fill="#000000" font-family="sans-serif" font-size="8.4" lengthAdjust="spacing" textLength="52.2" x="617.142" y="360.5098">Builder: Class</text><line style="stroke:#181818;stroke-width:0.3;" x1="605.742" x2="754.542" y1="365.018" y2="365.018"/><polygon fill="#FFFF44" points="611.742,370.9043,614.142,373.3043,611.742,375.7043,609.342,373.3043" style="stroke:#B38D22;stroke-width:0.6;"/><text fill="#000000" font-family="sans-serif" font-size="8.4" lengthAdjust="spacing" textLength="134.4" x="617.142" y="376.4824">Plane(length: int, particles: List&lt;T&gt;)</text><ellipse cx="611.742" cy="385.077" fill="#84BE84" rx="1.8" ry="1.8" style="stroke:#038048;stroke-width:0.6;"/><text fill="#000000" font-family="sans-serif" font-size="8.4" lengthAdjust="spacing" textLength="58.2" x="617.142" y="387.6551">getLength(): int</text><ellipse cx="611.742" cy="396.2496" fill="#84BE84" rx="1.8" ry="1.8" style="stroke:#038048;stroke-width:0.6;"/><text fill="#000000" font-family="sans-serif" font-size="8.4" lengthAdjust="spacing" textLength="83.4" x="617.142" y="398.8277">getParticles(): List&lt;T&gt;</text><ellipse cx="611.742" cy="407.4223" fill="#84BE84" rx="1.8" ry="1.8" style="stroke:#038048;stroke-width:0.6;"/><text fill="#000000" font-family="sans-serif" font-size="8.4" lengthAdjust="spacing" textLength="61.2" x="617.142" y="410.0004">toString(): string</text></g><!--reverse link Particle to MovingParticle--><g id="link_Particle_MovingParticle"><path codeLine="82" d="M353.742,730.356 C353.742,742.566 353.742,743.904 353.742,755.364 " fill="none" id="Particle-backto-MovingParticle" style="stroke:#181818;stroke-width:0.6;"/><polygon fill="none" points="353.742,719.556,350.142,730.356,357.342,730.356,353.742,719.556" style="stroke:#181818;stroke-width:0.6;"/></g><!--reverse link OffLaticeAutomata to CellIndexMethod--><g id="link_OffLaticeAutomata_CellIndexMethod"><path codeLine="83" d="M321.942,239.55 C321.942,251.196 321.942,256.134 321.942,268.092 " fill="none" id="OffLaticeAutomata-backto-CellIndexMethod" style="stroke:#181818;stroke-width:0.6;"/><polygon fill="#181818" points="321.942,232.35,319.542,235.95,321.942,239.55,324.342,235.95,321.942,232.35" style="stroke:#181818;stroke-width:0.6;"/></g><!--reverse link OffLaticeAutomata to Particle--><g id="link_OffLaticeAutomata_Particle"><path codeLine="84" d="M145.0881,194.1709 C105.0381,210.6589 73.686,232.26 49.542,268.2 C3.6,336.6 6.054,383.61 49.542,453.6 C72.936,491.25 108.864,519.756 147.93,541.236 " fill="none" id="OffLaticeAutomata-backto-Particle" style="stroke:#181818;stroke-width:0.6;"/><polygon fill="#181818" points="151.746,191.43,147.5034,190.5812,145.0881,194.1709,149.3307,195.0198,151.746,191.43" style="stroke:#181818;stroke-width:0.6;"/></g><!--reverse link OffLaticeAutomata to Plane--><g id="link_OffLaticeAutomata_Plane"><path codeLine="85" d="M498.6576,215.9575 C533.9616,231.2095 563.232,246.72 594.342,268.2 C610.17,279.126 625.254,293.424 638.232,307.482 " fill="none" id="OffLaticeAutomata-backto-Plane" style="stroke:#181818;stroke-width:0.6;"/><polygon fill="#181818" points="492.048,213.102,494.401,216.7329,498.6576,215.9575,496.3046,212.3265,492.048,213.102" style="stroke:#181818;stroke-width:0.6;"/></g><!--reverse link Plane to Particle--><g id="link_Plane_Particle"><path codeLine="86" d="M630.4871,419.5694 C617.8691,433.0874 608.592,441.852 594.342,453.6 C579.426,465.9 563.43,477.96 547.038,489.564 " fill="none" id="Plane-backto-Particle" style="stroke:#181818;stroke-width:0.6;"/><polygon fill="#181818" points="635.4,414.306,631.1891,415.3,630.4871,419.5694,634.698,418.5753,635.4,414.306" style="stroke:#181818;stroke-width:0.6;"/></g><!--reverse link Main to OffLaticeAutomata--><g id="link_Main_OffLaticeAutomata"><path codeLine="87" d="M321.942,51.684 C321.942,61.59 321.942,67.11 321.942,80.394 " fill="none" id="Main-backto-OffLaticeAutomata" style="stroke:#181818;stroke-width:0.6;"/><polygon fill="#181818" points="321.942,44.484,319.542,48.084,321.942,51.684,324.342,48.084,321.942,44.484" style="stroke:#181818;stroke-width:0.6;"/></g><!--SRC=[hLPBRzim3BxdLmZeOSvghtSZAD1c650WQOiss18CEoWsOwkGfSoIEmVR_lie-Id7QGjqkTWXAJu-VgJy8TLwhyABYpsdGXSP_nJ9x4B1pm94147CQ9BJR3A9E5MAB2aJvFU4uEyymtUFveaAoQFEcKY-_vY6v5coUFAtjPVFgBYdkMOHX_fay0nSHamVGXBBOikXabAHS714vzS5up7a8PaRRrPsvhhqM0n2inqpLigcuPESngnGZIkVbDtheNiTPk4J9uDfbK82-cjjw4tTx51rPKuCvQftP1YaGQWnh1ouWVics0VAbIUtJo6vspv1f56zbP835PL5IbKwbx7DWWdTOJz4_HYfIkwYLSbAz-_XzRQyko4TtZUj1rDJBrMZVB2kHbgn7f5jHbgpzifJpTXuutsAcT8Kfs4blNrTPjZ2EuZmegtVj0wVEIAuajVOkVo4YszCf_UGCncpQ2v5p3IJOZ7grWmlB40aEksWTMA4TUH1B2shsHqY_GxUpO7p6n53kGITodYs8b1g4777oCkMaa93JYDJryC82pEA6PN6trmMGbTnh6O_X4MvsGKM44J8F6QhovEy3GRPUYTJyibOEWZzwLJgldHfz3W-33F2tgKRhm7QgfawOePruRG8VTZ8Hk4YSQBj0LCtGk44cw2ZH8jGiPBx1UpqkaEc9zsuqckfjSmUM98ExNkQJM_gd0AWXAZGDlybtSzMFda4ZKNKLMnpL7wHUJHcqVBnRhTRK4mVhWeCI3Ljs1UnB3nYgtkzL8428PbwmzLq5CcBNE-lXlE94sfQ9qfvL72guHP-hU-biktsohTVPUvOzTrjMdU7_-5kv3h3aW2Rl9L5hgmQvsE16sxssQel1xnlMbwDbtiNEYgVx1W7GJDeAEmO8_VdB3EyU4k7ZVcjB5J_BaS2pQkBr8mEUMcFyNhpTlkfjcXgVM43dLKZsdE1Q-FeUBSvgYtlB0Cpvyq9et12ZemwLjP-7Cp-1C7WCsroF34VqMY0umchLvpOOYSLeewv_R8qagDp_m00]--></g></svg>